<svg width="20" height="20" viewBox="0 0 20 20" fill="none" xmlns="http://www.w3.org/2000/svg">
<path d="M17.5 16.6666C17.5 15.215 16.1083 13.9808 14.1667 13.5225M12.5 16.6666C12.5 14.825 10.2617 13.3333 7.5 13.3333C4.73833 13.3333 2.5 14.825 2.5 16.6666M12.5 10.8333C13.3841 10.8333 14.2319 10.4821 14.857 9.85698C15.4821 9.23186 15.8333 8.38401 15.8333 7.49996C15.8333 6.6159 15.4821 5.76806 14.857 5.14294C14.2319 4.51782 13.3841 4.16663 12.5 4.16663M7.5 10.8333C6.61594 10.8333 5.7681 10.4821 5.14298 9.85698C4.51786 9.23186 4.16667 8.38401 4.16667 7.49996C4.16667 6.6159 4.51786 5.76806 5.14298 5.14294C5.7681 4.51782 6.61594 4.16663 7.5 4.16663C8.38405 4.16663 9.2319 4.51782 9.85702 5.14294C10.4821 5.76806 10.8333 6.6159 10.8333 7.49996C10.8333 8.38401 10.4821 9.23186 9.85702 9.85698C9.2319 10.4821 8.38405 10.8333 7.5 10.8333Z" stroke="#1D1E21" stroke-width="1.5" stroke-linecap="round" stroke-linejoin="round"/>
</svg>
