<svg width="20" height="20" viewBox="0 0 20 20" fill="none" xmlns="http://www.w3.org/2000/svg">
<g clip-path="url(#clip0_0_115)">
<path d="M12.8573 10.7143C16.4077 10.7143 19.2859 9.4351 19.2859 7.85714C19.2859 6.27919 16.4077 5 12.8573 5C9.30688 5 6.42871 6.27919 6.42871 7.85714C6.42871 9.4351 9.30688 10.7143 12.8573 10.7143Z" stroke="#1D1E21" stroke-width="1.5" stroke-linecap="round" stroke-linejoin="round"/>
<path d="M6.42871 7.85718V16.4286C6.42871 18 9.28585 19.2857 12.8573 19.2857C16.4287 19.2857 19.2859 18 19.2859 16.4286V7.85718" stroke="#1D1E21" stroke-width="1.5" stroke-linecap="round" stroke-linejoin="round"/>
<path d="M19.2858 12.1429C19.2858 13.7143 16.4286 15 12.8572 15C9.28578 15 6.42864 13.7143 6.42864 12.1429M12.7144 2.14289C11.0451 1.11271 9.10197 0.614486 7.14293 0.71432C3.58578 0.71432 0.714355 2.00003 0.714355 3.57146C0.714355 4.41432 1.54293 5.17146 2.85721 5.71432" stroke="#1D1E21" stroke-width="1.5" stroke-linecap="round" stroke-linejoin="round"/>
<path d="M2.85721 14.2857C1.54293 13.7428 0.714355 12.9857 0.714355 12.1428V3.57141" stroke="#1D1E21" stroke-width="1.5" stroke-linecap="round" stroke-linejoin="round"/>
<path d="M2.85721 10C1.54293 9.45718 0.714355 8.70003 0.714355 7.85718" stroke="#1D1E21" stroke-width="1.5" stroke-linecap="round" stroke-linejoin="round"/>
</g>
<defs>
<clipPath id="clip0_0_115">
<rect width="20" height="20" fill="white"/>
</clipPath>
</defs>
</svg>
