<svg width="13" height="14" viewBox="0 0 13 14" fill="none" xmlns="http://www.w3.org/2000/svg">
<path fill-rule="evenodd" clip-rule="evenodd" d="M2 0C1.46957 0 0.960859 0.210714 0.585786 0.585786C0.210714 0.960859 0 1.46957 0 2V11.3333C0 11.8638 0.210714 12.3725 0.585786 12.7475C0.960859 13.1226 1.46957 13.3333 2 13.3333H6C6.53043 13.3333 7.03914 13.1226 7.41421 12.7475C7.78929 12.3725 8 11.8638 8 11.3333V2C8 1.46957 7.78929 0.960859 7.41421 0.585786C7.03914 0.210714 6.53043 0 6 0H2ZM8.862 3.52867C8.98702 3.40369 9.15656 3.33348 9.33333 3.33348C9.51011 3.33348 9.67965 3.40369 9.80467 3.52867L12.4713 6.19533C12.5963 6.32035 12.6665 6.48989 12.6665 6.66667C12.6665 6.84344 12.5963 7.01298 12.4713 7.138L9.80467 9.80467C9.67893 9.92611 9.51053 9.9933 9.33573 9.99178C9.16093 9.99026 8.99373 9.92015 8.87012 9.79655C8.74652 9.67294 8.6764 9.50573 8.67488 9.33093C8.67336 9.15614 8.74056 8.98773 8.862 8.862L10.3907 7.33333H4.66667C4.48986 7.33333 4.32029 7.26309 4.19526 7.13807C4.07024 7.01305 4 6.84348 4 6.66667C4 6.48986 4.07024 6.32029 4.19526 6.19526C4.32029 6.07024 4.48986 6 4.66667 6H10.3907L8.862 4.47133C8.73702 4.34631 8.66681 4.17678 8.66681 4C8.66681 3.82322 8.73702 3.65369 8.862 3.52867Z" fill="white"/>
</svg>
