<svg width="14" height="14" viewBox="0 0 14 14" fill="none" xmlns="http://www.w3.org/2000/svg">
<path d="M4 10.6667C3.26667 10.6667 2.67333 11.2667 2.67333 12C2.67333 12.7333 3.26667 13.3333 4 13.3333C4.73333 13.3333 5.33333 12.7333 5.33333 12C5.33333 11.2667 4.73333 10.6667 4 10.6667ZM0 0.666668C0 1.03333 0.3 1.33333 0.666667 1.33333H1.33333L3.73333 6.39333L2.83333 8.02C2.34667 8.91333 2.98667 10 4 10H11.3333C11.7 10 12 9.7 12 9.33333C12 8.96667 11.7 8.66667 11.3333 8.66667H4L4.73333 7.33333H9.7C10.2 7.33333 10.64 7.06 10.8667 6.64667L13.2533 2.32C13.3095 2.21895 13.3383 2.10498 13.337 1.98937C13.3356 1.87376 13.304 1.76052 13.2454 1.66084C13.1868 1.56117 13.1032 1.47852 13.0029 1.42108C12.9026 1.36364 12.789 1.33339 12.6733 1.33333H2.80667L2.36 0.380001C2.30642 0.266205 2.22153 0.170028 2.11527 0.10273C2.00901 0.0354317 1.88578 -0.000201907 1.76 8.60564e-07H0.666667C0.3 8.60564e-07 0 0.300001 0 0.666668ZM10.6667 10.6667C9.93333 10.6667 9.34 11.2667 9.34 12C9.34 12.7333 9.93333 13.3333 10.6667 13.3333C11.4 13.3333 12 12.7333 12 12C12 11.2667 11.4 10.6667 10.6667 10.6667Z" fill="#59B17A"/>
</svg>
