<svg width="16" height="16" viewBox="0 0 16 16" fill="none" xmlns="http://www.w3.org/2000/svg">
<path d="M9.99997 6.42071V2.66671H10.6666C10.8434 2.66671 11.013 2.59647 11.138 2.47145C11.2631 2.34642 11.3333 2.17685 11.3333 2.00004C11.3333 1.82323 11.2631 1.65366 11.138 1.52864C11.013 1.40361 10.8434 1.33337 10.6666 1.33337H5.3333C5.15649 1.33337 4.98692 1.40361 4.8619 1.52864C4.73687 1.65366 4.66663 1.82323 4.66663 2.00004C4.66663 2.17685 4.73687 2.34642 4.8619 2.47145C4.98692 2.59647 5.15649 2.66671 5.3333 2.66671H5.99997V6.42071L2.5153 11.5414C1.61197 12.8694 2.5633 14.6667 4.16863 14.6667H11.8306C13.4373 14.6667 14.388 12.8694 13.484 11.5414L9.99997 6.42137V6.42071Z" fill="#59B17A"/>
</svg>
