<svg xmlns="http://www.w3.org/2000/svg" style="display:none">

  <!-- Dashboard -->
  <symbol id="icon-dashboard" viewBox="0 0 12 12">
    <path d="M0.666667 6.66667H4.66667C5.03333 6.66667 5.33333 6.36667 5.33333 6V0.666667C5.33333 0.3 5.03333 0 4.66667 0H0.666667C0.3 0 0 0.3 0 0.666667V6C0 6.36667 0.3 6.66667 0.666667 6.66667ZM0.666667 12H4.66667C5.03333 12 5.33333 11.7 5.33333 11.3333V8.66667C5.33333 8.3 5.03333 8 4.66667 8H0.666667C0.3 8 0 8.3 0 8.66667V11.3333C0 11.7 0.3 12 0.666667 12ZM7.33333 12H11.3333C11.7 12 12 11.7 12 11.3333V6C12 5.63333 11.7 5.33333 11.3333 5.33333H7.33333C6.96667 5.33333 6.66667 5.63333 6.66667 6V11.3333C6.66667 11.7 6.96667 12 7.33333 12ZM6.66667 0.666667V3.33333C6.66667 3.7 6.96667 4 7.33333 4H11.3333C11.7 4 12 3.7 12 3.33333V0.666667C12 0.3 11.7 0 11.3333 0H7.33333C6.96667 0 6.66667 0.3 6.66667 0.666667Z" fill="currentColor"/>
  </symbol>

  <!-- Orders -->
  <symbol id="icon-orders" viewBox="0 0 14 14">
    <path d="M4 10.6667C3.26667 10.6667 2.67333 11.2667 2.67333 12C2.67333 12.7333 3.26667 13.3333 4 13.3333C4.73333 13.3333 5.33333 12.7333 5.33333 12C5.33333 11.2667 4.73333 10.6667 4 10.6667ZM0 0.666668C0 1.03333 0.3 1.33333 0.666667 1.33333H1.33333L3.73333 6.39333L2.83333 8.02C2.34667 8.91333 2.98667 10 4 10H11.3333C11.7 10 12 9.7 12 9.33333C12 8.96667 11.7 8.66667 11.3333 8.66667H4L4.73333 7.33333H9.7C10.2 7.33333 10.64 7.06 10.8667 6.64667L13.2533 2.32C13.3095 2.21895 13.3383 2.10498 13.337 1.98937C13.3356 1.87376 13.304 1.76052 13.2454 1.66084C13.1868 1.56117 13.1032 1.47852 13.0029 1.42108C12.9026 1.36364 12.789 1.33339 12.6733 1.33333H2.80667L2.36 0.380001C2.30642 0.266205 2.22153 0.170028 2.11527 0.10273C2.00901 0.0354317 1.88578 -0.000201907 1.76 8.60564e-07H0.666667C0.3 8.60564e-07 0 0.300001 0 0.666668ZM10.6667 10.6667C9.93333 10.6667 9.34 11.2667 9.34 12C9.34 12.7333 9.93333 13.3333 10.6667 13.3333C11.4 13.3333 12 12.7333 12 12C12 11.2667 11.4 10.6667 10.6667 10.6667Z" fill="currentColor"/>
  </symbol>

  <!-- Products -->
  <symbol id="icon-products" viewBox="0 0 16 16">
    <path d="M9.99997 6.42071V2.66671H10.6666C10.8434 2.66671 11.013 2.59647 11.138 2.47145C11.2631 2.34642 11.3333 2.17685 11.3333 2.00004C11.3333 1.82323 11.2631 1.65366 11.138 1.52864C11.013 1.40361 10.8434 1.33337 10.6666 1.33337H5.3333C5.15649 1.33337 4.98692 1.40361 4.8619 1.52864C4.73687 1.65366 4.66663 1.82323 4.66663 2.00004C4.66663 2.17685 4.73687 2.34642 4.8619 2.47145C4.98692 2.59647 5.15649 2.66671 5.3333 2.66671H5.99997V6.42071L2.5153 11.5414C1.61197 12.8694 2.5633 14.6667 4.16863 14.6667H11.8306C13.4373 14.6667 14.388 12.8694 13.484 11.5414L9.99997 6.42137V6.42071Z" fill="currentColor"/>
  </symbol>

  <!-- Suppliers -->
  <symbol id="icon-suppliers" viewBox="0 0 16 16">
    <path d="M10.6667 9.33335H8.66667V11.3334H7.33333V9.33335H5.33333V8.00002H7.33333V6.00002H8.66667V8.00002H10.6667M14 3.33335H12.2333L13 1.23335L11.4333 0.666687L10.46 3.33335H2V4.66669L3.33333 8.66669L2 12.6667V14H14V12.6667L12.6667 8.66669L14 4.66669V3.33335Z" fill="currentColor"/>
  </symbol>

  <!-- Customers -->
  <symbol id="icon-customers" viewBox="0 0 20 20">
    <path d="M17.5 16.6666C17.5 15.215 16.1083 13.9808 14.1667 13.5225M12.5 16.6666C12.5 14.825 10.2617 13.3333 7.5 13.3333C4.73833 13.3333 2.5 14.825 2.5 16.6666M12.5 10.8333C13.3841 10.8333 14.2319 10.4821 14.857 9.85698C15.4821 9.23186 15.8333 8.38401 15.8333 7.49996C15.8333 6.6159 15.4821 5.76806 14.857 5.14294C14.2319 4.51782 13.3841 4.16663 12.5 4.16663M7.5 10.8333C6.61594 10.8333 5.7681 10.4821 5.14298 9.85698C4.51786 9.23186 4.16667 8.38401 4.16667 7.49996C4.16667 6.6159 4.51786 5.76806 5.14298 5.14294C5.7681 4.51782 6.61594 4.16663 7.5 4.16663C8.38405 4.16663 9.2319 4.51782 9.85702 5.14294C10.4821 5.76806 10.8333 6.6159 10.8333 7.49996C10.8333 8.38401 10.4821 9.23186 9.85702 9.85698C9.2319 10.4821 8.38405 10.8333 7.5 10.8333Z" stroke="currentColor" stroke-width="1.5" stroke-linecap="round" stroke-linejoin="round"/>
  </symbol>

  <!-- Logout -->
  <symbol id="icon-logout" viewBox="0 0 13 14">
    <path fill-rule="evenodd" clip-rule="evenodd" d="M2 0C1.46957 0 0.960859 0.210714 0.585786 0.585786C0.210714 0.960859 0 1.46957 0 2V11.3333C0 11.8638 0.210714 12.3725 0.585786 12.7475C0.960859 13.1226 1.46957 13.3333 2 13.3333H6C6.53043 13.3333 7.03914 13.1226 7.41421 12.7475C7.78929 12.3725 8 11.8638 8 11.3333V2C8 1.46957 7.78929 0.960859 7.41421 0.585786C7.03914 0.210714 6.53043 0 6 0H2ZM8.862 3.52867C8.98702 3.40369 9.15656 3.33348 9.33333 3.33348C9.51011 3.33348 9.67965 3.40369 9.80467 3.52867L12.4713 6.19533C12.5963 6.32035 12.6665 6.48989 12.6665 6.66667C12.6665 6.84344 12.5963 7.01298 12.4713 7.138L9.80467 9.80467C9.67893 9.92611 9.51053 9.9933 9.33573 9.99178C9.16093 9.99026 8.99373 9.92015 8.87012 9.79655C8.74652 9.67294 8.6764 9.50573 8.67488 9.33093C8.67336 9.15614 8.74056 8.98773 8.862 8.862L10.3907 7.33333H4.66667C4.48986 7.33333 4.32029 7.26309 4.19526 7.13807C4.07024 7.01305 4 6.84348 4 6.66667C4 6.48986 4.07024 6.32029 4.19526 6.19526C4.32029 6.07024 4.48986 6 4.66667 6H10.3907L8.862 4.47133C8.73702 4.34631 8.66681 4.17678 8.66681 4C8.66681 3.82322 8.73702 3.65369 8.862 3.52867Z" fill="currentColor"/>
  </symbol>

  <!-- Menu (hamburger) -->
  <symbol id="icon-menu" viewBox="0 0 32 32">
    <path d="M4 8.00134H28M4 16.0013H28M4 24.0013H28" stroke="currentColor" stroke-width="2" stroke-linecap="round" stroke-linejoin="round"/>
  </symbol>

  <!-- X (close) -->
  <symbol id="icon-x" viewBox="0 0 32 32">
    <path d="M24 8L8 24" stroke="currentColor" stroke-width="2" stroke-linecap="round" stroke-linejoin="round"/>
    <path d="M8 8L24 24" stroke="currentColor" stroke-width="2" stroke-linecap="round" stroke-linejoin="round"/>
  </symbol>

  <!-- Filter -->
  <symbol id="icon-filter" viewBox="0 0 14 12">
    <path d="M12.4167 0.75H0.75L5.41667 6.26833V10.0833L7.75 11.25V6.26833L12.4167 0.75Z" stroke="currentColor" stroke-width="1.5" stroke-linecap="round" stroke-linejoin="round"/>
  </symbol>

  <!-- Edit (pencil) -->
  <symbol id="icon-edit" viewBox="0 0 14 14">
    <path d="M9.91797 1.75083C10.0712 1.59762 10.2531 1.47609 10.4532 1.39317C10.6534 1.31025 10.868 1.26758 11.0846 1.26758C11.3013 1.26758 11.5159 1.31025 11.716 1.39317C11.9162 1.47609 12.0981 1.59762 12.2513 1.75083C12.4045 1.90404 12.526 2.08592 12.609 2.2861C12.6919 2.48628 12.7346 2.70082 12.7346 2.91749C12.7346 3.13416 12.6919 3.34871 12.609 3.54889C12.526 3.74907 12.4045 3.93095 12.2513 4.08416L4.3763 11.9592L1.16797 12.8342L2.04297 9.62583L9.91797 1.75083Z" stroke="currentColor" stroke-width="1.3" stroke-linecap="round" stroke-linejoin="round"/>
  </symbol>

  <!-- Edit-2 -->
  <symbol id="icon-edit-2" viewBox="0 0 16 16">
    <path d="M11.3348 2.00095C11.5099 1.82586 11.7178 1.68696 11.9466 1.5922C12.1753 1.49744 12.4205 1.44867 12.6682 1.44867C12.9158 1.44867 13.161 1.49744 13.3898 1.5922C13.6185 1.68696 13.8264 1.82586 14.0015 2.00095C14.1766 2.17605 14.3155 2.38392 14.4102 2.61269C14.505 2.84147 14.5538 3.08666 14.5538 3.33429C14.5538 3.58191 14.505 3.82711 14.4102 4.05588C14.3155 4.28466 14.1766 4.49252 14.0015 4.66762L5.00149 13.6676L1.33482 14.6676L2.33482 11.001L11.3348 2.00095Z" stroke="currentColor" stroke-width="1.3" stroke-linecap="round" stroke-linejoin="round"/>
  </symbol>

  <!-- Trash -->
  <symbol id="icon-trash" viewBox="0 0 16 16">
    <path d="M2 4H3.33333H14" stroke="currentColor" stroke-width="1.3" stroke-linecap="round" stroke-linejoin="round"/>
    <path d="M12.6667 3.99998V13.3333C12.6667 13.6869 12.5262 14.0261 12.2761 14.2761C12.0261 14.5262 11.687 14.6666 11.3333 14.6666H4.66666C4.31304 14.6666 3.9739 14.5262 3.72385 14.2761C3.4738 14.0261 3.33333 13.6869 3.33333 13.3333V3.99998M5.33333 3.99998V2.66665C5.33333 2.31302 5.4738 1.97389 5.72385 1.72384C5.9739 1.47379 6.31304 1.33331 6.66666 1.33331H9.33333C9.68695 1.33331 10.0261 1.47379 10.2761 1.72384C10.5262 1.97389 10.6667 2.31302 10.6667 2.66665V3.99998" stroke="currentColor" stroke-width="1.3" stroke-linecap="round" stroke-linejoin="round"/>
    <path d="M6.66667 7.33331V11.3333" stroke="currentColor" stroke-width="1.3" stroke-linecap="round" stroke-linejoin="round"/>
    <path d="M9.33333 7.33331V11.3333" stroke="currentColor" stroke-width="1.3" stroke-linecap="round" stroke-linejoin="round"/>
  </symbol>

  <!-- Trash-2 -->
  <symbol id="icon-trash-2" viewBox="0 0 16 16">
    <path d="M2 4H3.33333H14" stroke="currentColor" stroke-width="1.3" stroke-linecap="round" stroke-linejoin="round"/>
    <path d="M12.6667 3.99998V13.3333C12.6667 13.6869 12.5262 14.0261 12.2761 14.2761C12.0261 14.5562 11.687 14.6666 11.3333 14.6666H4.66666C4.31304 14.6666 3.9739 14.5262 3.72385 14.2761C3.4738 14.0261 3.33333 13.6869 3.33333 13.3333V3.99998M5.33333 3.99998V2.66665C5.33333 2.31302 5.4738 1.97389 5.72385 1.72384C5.9739 1.47379 6.31304 1.33331 6.66666 1.33331H9.33333C9.68695 1.33331 10.0261 1.47379 10.2761 1.72384C10.5262 1.97389 10.6667 2.31302 10.6667 2.66665V3.99998" stroke="currentColor" stroke-width="1.3" stroke-linecap="round" stroke-linejoin="round"/>
    <path d="M6.66667 7.33331V11.3333" stroke="currentColor" stroke-width="1.3" stroke-linecap="round" stroke-linejoin="round"/>
    <path d="M9.33333 7.33331V11.3333" stroke="currentColor" stroke-width="1.3" stroke-linecap="round" stroke-linejoin="round"/>
  </symbol>

  <!-- Calendar -->
  <symbol id="icon-calendar" viewBox="0 0 16 16">
    <path d="M12.6667 2.66602H3.33333C2.59695 2.66602 2 3.26297 2 3.99935V13.3327C2 14.0691 2.59695 14.666 3.33333 14.666H12.6667C13.403 14.666 14 14.0691 14 13.3327V3.99935C14 3.26297 13.403 2.66602 12.6667 2.66602Z" stroke="currentColor" stroke-width="1.5" stroke-linecap="round" stroke-linejoin="round"/>
    <path d="M10.666 1.33398V4.00065" stroke="currentColor" stroke-width="1.5" stroke-linecap="round" stroke-linejoin="round"/>
    <path d="M5.33398 1.33398V4.00065" stroke="currentColor" stroke-width="1.5" stroke-linecap="round" stroke-linejoin="round"/>
    <path d="M2 6.66602H14" stroke="currentColor" stroke-width="1.5" stroke-linecap="round" stroke-linejoin="round"/>
  </symbol>

  <!-- Finance -->
  <symbol id="icon-finance" viewBox="0 0 20 20">
    <path d="M12.8573 10.7143C16.4077 10.7143 19.2859 9.4351 19.2859 7.85714C19.2859 6.27919 16.4077 5 12.8573 5C9.30688 5 6.42871 6.27919 6.42871 7.85714C6.42871 9.4351 9.30688 10.7143 12.8573 10.7143Z" stroke="currentColor" stroke-width="1.5" stroke-linecap="round" stroke-linejoin="round"/>
    <path d="M6.42871 7.85718V16.4286C6.42871 18 9.28585 19.2857 12.8573 19.2857C16.4287 19.2857 19.2859 18 19.2859 16.4286V7.85718" stroke="currentColor" stroke-width="1.5" stroke-linecap="round" stroke-linejoin="round"/>
    <path d="M19.2858 12.1429C19.2858 13.7143 16.4286 15 12.8572 15C9.28578 15 6.42864 13.7143 6.42864 12.1429M12.7144 2.14289C11.0451 1.11271 9.10197 0.614486 7.14293 0.71432C3.58578 0.71432 0.714355 2.00003 0.714355 3.57146C0.714355 4.41432 1.54293 5.17146 2.85721 5.71432" stroke="currentColor" stroke-width="1.5" stroke-linecap="round" stroke-linejoin="round"/>
    <path d="M2.85721 14.2857C1.54293 13.7428 0.714355 12.9857 0.714355 12.1428V3.57141" stroke="currentColor" stroke-width="1.5" stroke-linecap="round" stroke-linejoin="round"/>
    <path d="M2.85721 10C1.54293 9.45718 0.714355 8.70003 0.714355 7.85718" stroke="currentColor" stroke-width="1.5" stroke-linecap="round" stroke-linejoin="round"/>
  </symbol>

  <!-- MDI Users -->
  <symbol id="icon-mdi-users" viewBox="0 0 16 16">
    <path d="M10.6667 11.3333V12.6667H1.33337V11.3333C1.33337 11.3333 1.33337 8.66666 6.00004 8.66666C10.6667 8.66666 10.6667 11.3333 10.6667 11.3333ZM8.33337 4.99999C8.33337 4.53851 8.19653 4.08738 7.94014 3.70366C7.68375 3.31995 7.31933 3.02088 6.89297 2.84428C6.46661 2.66767 5.99745 2.62146 5.54483 2.7115C5.09221 2.80153 4.67645 3.02376 4.35012 3.35008C4.0238 3.6764 3.80157 4.09216 3.71154 4.54478C3.62151 4.99741 3.66772 5.46656 3.84432 5.89292C4.02093 6.31928 4.32 6.6837 4.70371 6.94009C5.08742 7.19648 5.53855 7.33333 6.00004 7.33333C6.61888 7.33333 7.21237 7.0875 7.64996 6.64991C8.08754 6.21233 8.33337 5.61883 8.33337 4.99999ZM10.6267 8.66666C11.0365 8.98383 11.3719 9.38695 11.6092 9.84767C11.8464 10.3084 11.9798 10.8155 12 11.3333V12.6667H14.6667V11.3333C14.6667 11.3333 14.6667 8.91333 10.6267 8.66666ZM10 2.66666C9.54117 2.66411 9.09238 2.8013 8.71337 3.05999C9.11833 3.62582 9.33608 4.30419 9.33608 4.99999C9.33608 5.6958 9.11833 6.37417 8.71337 6.94C9.09238 7.19869 9.54117 7.33588 10 7.33333C10.6189 7.33333 11.2124 7.0875 11.65 6.64991C12.0875 6.21233 12.3334 5.61883 12.3334 4.99999C12.3334 4.38116 12.0875 3.78766 11.65 3.35008C11.2124 2.91249 10.6189 2.66666 10 2.66666Z" fill="currentColor"/>
  </symbol>

  <!-- Plus -->
  <symbol id="icon-plus" viewBox="0 0 24 24">
    <line x1="12" y1="5" x2="12" y2="19" stroke="currentColor" stroke-width="2.5" stroke-linecap="round"/>
    <line x1="5" y1="12" x2="19" y2="12" stroke="currentColor" stroke-width="2.5" stroke-linecap="round"/>
  </symbol>

  <!-- Chevron Down -->
  <symbol id="icon-chevron-down" viewBox="0 0 24 24">
    <polyline points="6 9 12 15 18 9" stroke="currentColor" stroke-width="2" stroke-linecap="round" stroke-linejoin="round" fill="none"/>
  </symbol>

  <!-- Eye -->
  <symbol id="icon-eye" viewBox="0 0 24 24">
    <path d="M1 12s4-8 11-8 11 8 11 8-4 8-11 8-11-8-11-8z" stroke="currentColor" stroke-width="2" stroke-linecap="round" stroke-linejoin="round" fill="none"/>
    <circle cx="12" cy="12" r="3" stroke="currentColor" stroke-width="2" fill="none"/>
  </symbol>

  <!-- Eye Off -->
  <symbol id="icon-eye-off" viewBox="0 0 24 24">
    <path d="M17.94 17.94A10.07 10.07 0 0 1 12 20c-7 0-11-8-11-8a18.45 18.45 0 0 1 5.06-5.94M9.9 4.24A9.12 9.12 0 0 1 12 4c7 0 11 8 11 8a18.5 18.5 0 0 1-2.16 3.19" stroke="currentColor" stroke-width="2" stroke-linecap="round" stroke-linejoin="round" fill="none"/>
    <line x1="1" y1="1" x2="23" y2="23" stroke="currentColor" stroke-width="2" stroke-linecap="round"/>
  </symbol>

  <!-- Database -->
  <symbol id="icon-database" viewBox="0 0 18 18">
    <path d="M11.5709 9.64286C14.7662 9.64286 17.3566 8.49159 17.3566 7.07143C17.3566 5.65127 14.7662 4.5 11.5709 4.5C8.37551 4.5 5.78516 5.65127 5.78516 7.07143C5.78516 8.49159 8.37551 9.64286 11.5709 9.64286Z" stroke="currentColor" stroke-width="1.5" stroke-linecap="round" stroke-linejoin="round" fill="none"/>
    <path d="M5.78516 7.07141V14.7857C5.78516 16.2 8.35658 17.3571 11.5709 17.3571C14.7852 17.3571 17.3566 16.2 17.3566 14.7857V7.07141" stroke="currentColor" stroke-width="1.5" stroke-linecap="round" stroke-linejoin="round" fill="none"/>
    <path d="M17.3569 10.9286C17.3569 12.3429 14.7854 13.5 11.5711 13.5C8.35686 13.5 5.78544 12.3429 5.78544 10.9286M11.4426 1.92859C9.94021 1.00143 8.19143 0.553025 6.42829 0.642876C3.22686 0.642876 0.642578 1.80002 0.642578 3.2143C0.642578 3.97288 1.38829 4.6543 2.57115 5.14288" stroke="currentColor" stroke-width="1.5" stroke-linecap="round" stroke-linejoin="round" fill="none"/>
    <path d="M2.57115 12.8572C1.38829 12.3686 0.642578 11.6872 0.642578 10.9286V3.21436" stroke="currentColor" stroke-width="1.5" stroke-linecap="round" stroke-linejoin="round" fill="none"/>
    <path d="M2.57115 8.99998C1.38829 8.51141 0.642578 7.82998 0.642578 7.07141" stroke="currentColor" stroke-width="1.5" stroke-linecap="round" stroke-linejoin="round" fill="none"/>
  </symbol>

</svg>
